<?xml version="1.0" encoding="UTF-8"?>
<svg width="175px" height="175px" viewBox="0 0 175 175" version="1.1" xmlns="http://www.w3.org/2000/svg" xmlns:xlink="http://www.w3.org/1999/xlink">
    <!-- Generator: Sketch 52.6 (67491) - http://www.bohemiancoding.com/sketch -->
    <title>Untitled</title>
    <desc>Created with Sketch.</desc>
    <g id="Page-1" stroke="none" stroke-width="1" fill="none" fill-rule="evenodd">
        <g id="typescript" fill="#00A23C">
            <polygon id="Path" points="0 87.5 0 175 175 175 175 0 0 0"></polygon>
        </g>
        <g id="less" transform="translate(39.000000, 62.000000)" fill="#FFFFFF" fill-rule="nonzero" stroke="#979797">
            <path d="M24.5905684,0.0174030838 L24.5905684,31.9383923 C24.5905684,35.7801638 25.0171253,36.3471987 28.8341496,37.441708 L27.9194709,42.791177 C25.8834315,42.329637 23.9221494,42.1230429 22.1499596,41.4241393 C18.7682871,40.0966622 18.2361904,37.0329154 18.2229979,33.8856518 C18.179023,24.8614448 18.2054079,15.8372378 18.2054079,6.8174265 L18.2054079,5.03280496 C16.6530927,5.1514867 15.2239074,5.13829984 13.8518894,5.40203704 C12.2731893,5.70093916 11.3717031,6.99764694 11.3189332,8.89655456 C11.2441758,11.5427176 11.2925483,14.1888805 11.2485733,16.8350435 C11.2370648,18.0482529 11.163678,19.2600867 11.0286986,20.4658253 C10.756054,22.7295693 9.7138481,24.571334 7.80533595,25.806503 C7.82292591,25.9779322 7.79654095,26.1054052 7.84051592,26.1361745 C10.7032842,28.1361814 11.1958034,31.1339939 11.2485733,34.29884 C11.2881508,36.8131344 11.2485733,39.3318244 11.2617658,41.8461188 C11.2837533,45.6395385 12.2687918,46.6637178 16.0770211,46.9054769 L16.6926702,46.9977849 L16.6926702,51.9472526 C14.0497766,51.8813183 11.4640505,51.7714278 9.09819904,50.5054893 C6.46410046,49.0944955 5.57580683,46.650531 5.44827949,43.8900819 C5.31635467,41.0329292 5.36472712,38.1669852 5.33834216,35.3054369 C5.33394468,34.7867538 5.35593212,34.2636751 5.32514968,33.7405963 C5.13605746,30.4262992 3.84319437,28.9669535 0.580254252,28.4043142 C0.553869289,28.2548631 0.50549684,28.0922252 0.505496891,27.9251916 C0.496701886,26.5361759 0.501099363,25.1515557 0.501099363,23.8064961 L0.734166554,23.5955064 C4.16860893,22.7647343 5.29436724,21.3669272 5.33394468,17.7801017 C5.36032964,15.4811927 5.29436724,13.1822836 5.35593212,10.8833746 C5.3640889,9.32422053 5.49199207,7.76799352 5.73851403,6.22841351 C6.34976566,2.85697332 8.80356697,0.817405836 12.7305286,0.289931489 C13.8914669,0.136084823 15.0612001,0.0393811498 16.2309334,0.0217986868 C18.9573793,-0.017761893 21.6882227,0.0086118269 24.5949659,0.0086118269 L24.5905684,0.0174030838 Z M35.6590593,29.9120117 C35.2544899,33.2482869 37.8270236,36.3076381 41.3977883,36.9713767 C44.7750632,37.5999503 48.0336059,37.0197285 51.4064833,35.9647798 C51.6747304,37.5296204 51.9693625,39.0417135 52.1628522,40.5669935 C52.1936346,40.7999613 51.7934627,41.2439189 51.5076257,41.3318313 C46.5604456,42.8790894 41.5692905,43.3889813 36.6045204,41.485678 C33.6179569,40.3936033 31.2602101,38.0481068 30.1533976,35.0680735 C28.2844629,30.2021226 28.2624754,25.3054024 30.4656196,20.5405508 C33.6845848,13.5734938 41.7056128,11.7624985 47.7081914,14.553717 C51.3361234,16.2416349 53.0863258,19.3801073 53.7107698,23.1427576 C54.0669668,25.2966112 54.0361844,27.5120034 54.1944941,29.9076161 L35.6634568,29.9032205 L35.6590593,29.9120117 Z M47.6554214,25.2086987 C47.7301788,21.1471463 45.4258922,18.6064782 41.8155501,18.6284563 C38.3635178,18.6504344 35.557917,21.6042907 35.6458669,25.2086987 L47.6554214,25.2086987 Z M94.3216217,52 L94.3216217,46.9714112 L95.7639995,46.8703119 C98.477253,46.650531 99.6865637,45.4461312 99.7569236,42.7296383 C99.822886,40.1274316 99.7569236,37.5252248 99.805296,34.923018 C99.8272835,33.6702664 99.9020409,32.404328 100.086736,31.1647633 C100.407753,29.0197009 101.502728,27.2966181 103.51678,25.991119 C99.9548108,23.7317706 99.8360784,20.2812092 99.8008985,16.8086698 C99.7745135,14.4218483 99.8272834,12.0350269 99.778911,9.65260113 C99.7129486,6.4130295 98.5168304,5.23060786 95.2670828,5.0855524 L94.3699941,5.02401375 L94.3699941,0.0261942899 C97.1931849,0.0877329866 99.9899907,0.175645352 102.465779,1.77565091 C104.770066,3.26576593 105.491255,5.62621365 105.601192,8.16688172 C105.737515,11.2438154 105.667155,14.3251447 105.724322,17.4020784 C105.741912,18.307576 105.785887,19.2394474 106.018954,20.1053844 C106.612616,22.3339636 108.156136,23.4856159 110.5,23.5647371 L110.5,28.4394791 C108.257278,28.5361827 106.652193,29.6043183 106.049737,31.8372931 C105.83414,32.7191036 105.727803,33.6240612 105.733117,34.5318079 C105.671552,37.569181 105.733117,40.6065541 105.62318,43.6395316 C105.451678,48.452735 102.914324,51.1296673 98.121056,51.687911 C96.8897578,51.8329665 95.6452672,51.8857139 94.3260192,51.9912087 L94.3216217,52 Z M95.4957524,14.6416293 L94.3392117,19.6790094 C91.6567407,18.7910942 89.0138471,18.1801031 86.2434262,18.6240607 C84.4976214,18.9053803 83.4686079,19.6702181 83.2531307,20.8922003 C83.015666,22.2152818 83.6620976,23.3889123 85.2627852,24.1801238 C86.6172132,24.8482579 88.0551935,25.3493585 89.449199,25.9383716 C90.2847227,26.2944168 91.124644,26.6416707 91.9381802,27.0504634 C95.8519494,29.0021184 97.2063773,31.503226 96.757833,35.9076368 C96.445611,38.9933617 94.2204793,41.265897 90.3067102,42.1274385 C85.6653576,43.1781582 80.8163004,42.8262617 76.375451,41.116446 L77.3956695,36.043901 C79.396529,36.5010454 81.3006436,37.0944541 83.2487332,37.3274219 C84.8582158,37.5208292 86.5336608,37.3669825 88.1607334,37.2043446 C89.2337218,37.0988497 90.1352079,36.5493973 90.3990575,35.3449975 C90.6717021,34.1054327 90.3199026,33.028506 89.2732992,32.3911411 C87.9892311,31.6087209 86.5820332,31.0197079 85.2188103,30.3647605 C83.5829427,29.5823402 81.8767153,28.9229973 80.3024126,28.0306865 C75.6674545,25.4152929 75.7114295,17.3185617 80.8652918,14.8570147 C82.4327164,14.1422791 84.0990726,13.6680738 85.8080744,13.4504164 C89.075412,12.9844808 92.2547998,13.6570105 95.5001499,14.6416293 L95.4957524,14.6416293 Z M74.4845288,14.4130571 L73.2752182,19.6878006 C70.5883496,18.7735117 67.9850336,18.1976856 65.2497926,18.6152694 C63.4204354,18.8965891 62.3958194,19.6702181 62.1759447,20.953739 C61.9560701,22.2548424 62.6156941,23.3977035 64.2647541,24.2021019 C65.7027345,24.9010054 67.2242672,25.4328754 68.6974275,26.0526577 C69.4142189,26.3559555 70.1310103,26.6680445 70.8302118,27.0152984 C74.8847007,29.0328878 76.3006936,31.7537763 75.6542621,36.228517 C75.2101152,39.3142419 72.5188492,41.6834808 68.5523102,42.3076589 C64.5242062,42.9406281 60.5268847,42.8351332 56.5955256,41.577986 C55.6324745,41.2702926 55.2279051,40.896665 55.5225371,39.8417163 C55.8743366,38.6021516 56.0854163,37.3230263 56.3624584,36.0482966 C58.3501254,36.4966498 60.2542401,37.094454 62.2023297,37.3230263 C63.8118123,37.5120379 65.4872573,37.3625868 67.1143298,37.1999489 C68.2576781,37.0900584 69.1459718,36.4482979 69.3878339,35.2043377 C69.6209011,34.0043335 69.2031392,32.9625717 68.2137032,32.3867455 C66.7229529,31.5208084 65.1134703,30.8658611 63.5567576,30.1186058 C62.1143798,29.4284936 60.619232,28.8262937 59.2384191,28.0350821 C54.5990635,25.3757323 54.6738209,17.3405397 59.9024406,14.7427286 C62.167596,13.6165369 64.6993825,13.1359458 67.2198697,13.3537128 C69.6077086,13.5427245 71.9735601,14.0350338 74.4889263,14.4130571 L74.4845288,14.4130571 Z" id="Shape"></path>
        </g>
    </g>
</svg>