<?xml version="1.0" encoding="UTF-8"?>
<svg width="175px" height="175px" viewBox="0 0 175 175" version="1.1" xmlns="http://www.w3.org/2000/svg" xmlns:xlink="http://www.w3.org/1999/xlink">
    <!-- Generator: Sketch 52.6 (67491) - http://www.bohemiancoding.com/sketch -->
    <title>Untitled 4</title>
    <desc>Created with Sketch.</desc>
    <g id="Page-1" stroke="none" stroke-width="1" fill="none" fill-rule="evenodd">
        <g id="r">
            <g id="typescript" fill="#654735">
                <polygon id="Path" points="0 87.5 0 175 175 175 175 0 0 0"></polygon>
            </g>
            <path d="M120.500204,136.75 L93.9377035,99 L94.1627035,98.975 C106.933248,94.6961717 115.516635,82.7056393 115.450204,69.2375 C115.450204,51.9875 101.700204,38 84.7127035,38 L60.1502035,38 C58.5058444,38.0132075 56.9340868,38.6791207 55.7807266,39.8512347 C54.6273664,41.0233488 53.9868891,42.6056418 54.0002035,44.25 L54,137.9625 L66.2877035,137.9625 L66.2877035,100.475 L79.5252035,100.475 L105.437704,136.75 L120.487704,136.75 L120.500204,136.75 Z M66.2752035,87.975 L66.2752035,50.5 L84.7127035,50.5 C94.9002035,50.5 103.162704,58.875 103.162704,69.2375 C103.162704,79.5875 94.9127035,87.9875 84.7127035,87.9875 L66.2877035,87.9875 L66.2752035,87.975 Z" id="Shape" fill="#FFFFFF" fill-rule="nonzero"></path>
        </g>
    </g>
</svg>