<?xml version="1.0" encoding="UTF-8"?>
<svg width="175px" height="175px" viewBox="0 0 175 175" version="1.1" xmlns="http://www.w3.org/2000/svg" xmlns:xlink="http://www.w3.org/1999/xlink">
    <!-- Generator: Sketch 52.6 (67491) - http://www.bohemiancoding.com/sketch -->
    <title>Untitled</title>
    <desc>Created with Sketch.</desc>
    <g id="Page-1" stroke="none" stroke-width="1" fill="none" fill-rule="evenodd">
        <g id="typescript" fill="#F03D70">
            <polygon id="Path" points="0 87.5 0 175 175 175 175 0 0 0"></polygon>
        </g>
        <path d="M133.841514,102.591837 C133.512734,99.9909937 132.117231,97.6405047 129.985013,96.0962099 C127.570006,94.2857681 124.634107,93.292512 121.608717,93.2623907 C119.123834,93.1563037 116.642322,93.5387418 114.306607,94.3877551 C113.637442,94.6326531 112.974148,94.9183673 112.299113,95.1865889 C112.216935,95.0116618 112.093668,94.8483965 112.01736,94.6851312 C111.192564,93.3300051 110.612506,91.8421251 110.30336,90.2886297 C110.099598,89.1488583 110.099598,87.982337 110.30336,86.8425656 C110.567503,85.7463557 110.890346,84.6676385 111.236668,83.5830904 C111.344131,83.373665 111.352524,83.1276731 111.259584,82.9115001 C111.166643,82.6953272 110.981947,82.5312533 110.755339,82.4635569 C110.569944,82.3718706 110.372269,82.307071 110.168353,82.271137 C108.871367,82.0872818 107.549678,82.184756 106.294243,82.5568513 C105.849555,82.6462963 105.503739,82.9944289 105.419633,83.4373178 C105.360934,83.7230321 105.243537,84.0204082 105.167229,84.2769679 C104.902429,85.4727885 104.533186,86.6434009 104.063694,87.7755102 C102.719495,90.5685131 101.187461,93.2507289 99.6143375,95.9387755 C99.4441114,96.2244898 99.2680155,96.5218659 99.0273511,96.8600583 C98.4169631,95.7996073 97.9716797,94.6534865 97.7066317,93.4606414 C97.4377478,92.1132063 97.4377478,90.7264439 97.7066317,89.3790087 C97.9590358,88.3644315 98.2936181,87.3673469 98.598851,86.3702624 C98.6935782,86.1965769 98.7092925,85.991018 98.6420546,85.8051146 C98.5748167,85.6192112 98.4310012,85.4705881 98.2466592,85.3965015 C98.035998,85.238417 97.7969392,85.12166 97.5422755,85.0524781 C96.1986136,84.8475932 94.8252791,84.9594472 93.5331585,85.3790087 C93.1551998,85.4950604 92.870006,85.8051298 92.7876858,86.1895044 C92.4719037,87.4365632 92.0798516,88.6633303 91.613713,89.8629738 C89.5357812,94.6151603 87.3991507,99.3498542 85.2625203,104.072886 C84.8164106,105.058309 84.2939928,106.014577 83.7891845,106.988338 C83.6465198,107.226729 83.4897134,107.456483 83.3195954,107.676385 C83.2208858,107.581887 83.1585854,107.456051 83.1434994,107.3207 C83.0887698,106.71736 83.090735,106.110267 83.1493693,105.507289 C83.7828897,102.256565 84.5663636,99.0364573 85.4973148,95.8571429 C85.6712306,95.4036583 85.5884446,94.8924582 85.2801299,94.516035 C84.6188721,93.8259091 83.5577359,93.6987331 82.7502186,94.212828 C82.6739103,94.271137 82.5799925,94.3061224 82.427376,94.393586 C82.427376,94.1661808 82.4684651,94.0204082 82.4919445,93.8746356 C82.6812315,92.7781928 82.6412697,91.6547803 82.3745473,90.574344 C82.1151086,89.2870659 80.9341954,88.3910362 79.6157113,88.4810496 C78.9476052,88.4947912 78.2866819,88.6209724 77.6610466,88.8542274 C75.1814933,89.8991209 73.0362024,91.5967044 71.4566005,93.7638484 C71.2960834,93.9646605 71.0964402,94.1312476 70.8696141,94.2536443 C68.7036343,95.4548105 66.5259148,96.638484 64.3540652,97.8279883 L61.9356813,99.1516035 C61.2899963,98.5102041 60.69714,97.8746356 60.0279755,97.3440233 C57.9852629,95.6822157 55.9190708,94.0612245 53.8528787,92.4169096 C51.9774923,91.0258708 50.3130142,89.374404 48.9104534,87.5131195 C47.8759266,86.1226628 47.2794755,84.4588146 47.1964531,82.7317784 C47.1414383,80.5258878 47.739447,78.3524734 48.9163232,76.4810496 C50.4335581,74.0872411 52.3651605,71.9789501 54.6218309,70.2536443 C56.9702758,68.3837179 59.4761433,66.7177249 62.1117772,65.2740525 C65.7427842,63.1647357 69.5997474,61.4651671 73.6108405,60.2069971 C77.7041089,58.8727879 82.0284841,58.3827041 86.3190958,58.7667638 C88.027119,58.913914 89.6889239,59.3954726 91.2086924,60.1836735 C92.3958972,60.7422394 93.3178821,61.7375634 93.7796928,62.9591837 C94.1881988,64.2184891 94.2289053,65.5670399 93.89709,66.8483965 C93.2280884,69.4065361 91.8847346,71.7412986 90.0053703,73.6122449 C87.039773,76.7296946 83.3462817,79.0728728 79.2517797,80.4344023 C76.8905462,81.2607252 74.4326881,81.7839133 71.9379293,81.9912536 C69.9148227,82.1941621 67.8716152,81.9471786 65.956538,81.2682216 C64.6801703,80.821355 63.5431505,80.0516251 62.6576745,79.0349854 C62.5986076,78.9189147 62.4954933,78.830946 62.3710663,78.7904749 C62.2466393,78.7500037 62.1111172,78.7603534 61.9943799,78.819242 C61.7367106,78.9667426 61.6308019,79.2823599 61.7478456,79.5539359 C61.8942161,80.0300104 62.0909776,80.4893309 62.334832,80.9241983 C63.0021258,81.9356814 63.8961831,82.7798973 64.9469214,83.3906706 C66.9123425,84.5400849 69.1523912,85.1442064 71.433121,85.1399417 C74.8894974,85.2498431 78.341373,84.8108884 81.6584239,83.8396501 C86.3812712,82.6186153 90.6428144,80.0551536 93.9205695,76.4635569 C96.7800485,73.5235674 98.5992622,69.7394225 99.1036593,65.6822157 C99.3708045,63.6515052 99.0319998,61.5875657 98.1292619,59.7463557 C97.0780341,57.8023042 95.4341932,56.2387736 93.4333708,55.2798834 C90.559985,53.859659 87.4084545,53.0814838 84.2000749,53 L80.9775197,53 C77.0982798,53.2020926 73.2724697,53.9885214 69.6310728,55.3323615 C66.853248,56.3301886 64.1349972,57.4846399 61.4895716,58.7900875 C55.6782949,61.5100143 50.4180819,65.2649571 45.9696516,69.8688047 C43.7195634,72.1666602 41.9763201,74.9051659 40.8511303,77.909621 C40.5400275,78.8134111 40.346322,79.7696793 40.1232671,80.7026239 C40.1232671,80.7784257 40.1937055,80.8542274 40,80.9300292 L40,82.2478134 C40.1473715,82.5682838 40.2481661,82.9079256 40.2993631,83.2565598 C40.9055161,85.3994885 41.9910534,87.3787563 43.4749594,89.0466472 C45.572664,91.4217026 47.9605896,93.5273854 50.5833646,95.3148688 C52.8432621,96.9241983 55.1148995,98.5102041 57.3630573,100.084548 C57.7504683,100.358601 58.10853,100.667638 58.5370301,101.005831 C58.1789684,101.198251 57.8737355,101.373178 57.5626327,101.530612 C54.582241,103.006639 51.7516738,104.764002 49.1100287,106.778426 C47.4722348,107.938667 46.0500962,109.37307 44.9072062,111.017493 C43.0555324,113.57241 42.6543265,116.892868 43.8447608,119.810496 C44.2040055,120.719965 44.8143963,121.510228 45.60572,122.090379 C45.8638264,122.293703 46.1587059,122.446102 46.4744598,122.539359 C47.2727613,122.702624 48.0828025,122.825073 48.8869739,123 L51.1703509,123 C53.641946,122.779681 56.0111035,121.914745 58.0380917,120.492711 C61.2281448,118.386073 63.4956124,115.156427 64.3834145,111.45481 C65.0931837,108.715855 65.0607813,105.839112 64.2894967,103.116618 C64.2014487,102.836735 64.0840515,102.591837 64.0077432,102.335277 C63.931435,102.078717 63.7964281,101.845481 63.6614213,101.536443 L68.8151617,98.5801749 L68.89147,98.6443149 C68.7975521,98.9475219 68.6977645,99.2274052 68.6155864,99.5655977 C67.9474282,101.774204 67.6518974,104.077442 67.7409766,106.381924 C67.8483187,108.829924 68.6433534,111.199197 70.0360934,113.221574 C70.656111,114.018059 71.6087415,114.489177 72.6222426,114.50054 C73.6357438,114.511903 74.598836,114.062264 75.2367928,113.279883 C75.685595,112.691354 76.0785956,112.062823 76.4107656,111.402332 C77.2501561,109.653061 78.030848,107.90379 78.8291495,106.154519 L78.9700262,105.833819 C78.9113276,106.661808 78.8467591,107.390671 78.8115399,108.119534 C78.7267882,109.250714 78.8643497,110.38747 79.2165605,111.466472 C79.4390285,112.398565 80.2203636,113.095705 81.177095,113.215743 C81.8565344,113.254356 82.521709,113.011585 83.0143624,112.54519 C83.8440207,111.892917 84.531091,111.07946 85.0335956,110.154519 C86.4599725,107.542274 87.9215686,104.953353 89.2129387,102.276968 C90.6099663,99.361516 91.830898,96.4052478 93.1281379,93.4606414 L93.3453228,92.9358601 C93.6505558,94.1370262 93.8677407,95.3148688 94.2610216,96.4344023 C94.7261827,97.7269152 95.2731719,98.9889095 95.8987136,100.212828 C96.2059106,100.665223 96.1441888,101.270987 95.751967,101.653061 C94.0614462,103.688047 92.4002748,105.734694 90.7391033,107.798834 C90.3625927,108.246509 90.01555,108.717847 89.7001374,109.209913 C89.5137894,109.523071 89.3920696,109.869949 89.3420757,110.230321 C89.2342673,110.919226 89.6925949,111.570001 90.3810416,111.705539 C91.047621,111.849744 91.7314898,111.898829 92.4120145,111.851312 C94.6918239,111.691889 96.8768161,110.882005 98.7045086,109.51895 C100.988417,107.930158 102.029552,105.093029 101.310728,102.41691 C101.130144,101.635083 100.892771,100.867281 100.600475,100.119534 C100.456277,99.8270124 100.492738,99.4784013 100.694392,99.2215743 C102.594087,96.4587962 104.300369,93.5695772 105.801174,90.574344 C105.862976,90.4453541 105.93981,90.3240182 106.030099,90.212828 C106.458217,92.7821801 107.332104,95.2582014 108.612839,97.5306122 C107.931935,98.1895044 107.25103,98.7842566 106.640565,99.4431487 C105.239051,100.834046 104.169867,102.519836 103.511927,104.376093 C103.208583,105.189661 103.090313,106.059849 103.165605,106.924198 C103.205227,107.555107 103.523628,108.136334 104.03542,108.512006 C104.547212,108.887679 105.200023,109.019354 105.818784,108.87172 C108.679771,108.307672 111.23831,106.733439 113.021107,104.440233 C114.151095,102.906603 114.457761,100.922153 113.842887,99.122449 C113.71375,98.5685131 113.549394,98.0612245 113.390908,97.4723032 C114.101161,97.2507289 114.799675,96.9883382 115.515799,96.8250729 C119.168317,95.93928 123.004388,96.1627166 126.527663,97.4664723 C128.618962,98.1672216 130.344146,99.6649031 131.323342,101.629738 C132.610752,103.935932 131.791788,106.841763 129.486075,108.148688 C129.251376,108.27749 129.029312,108.427804 128.82278,108.597668 C128.703039,108.735985 128.64762,108.918077 128.670164,109.099125 C128.763769,109.22541 128.911459,109.300923 129.069314,109.303207 C129.817198,109.237768 130.526498,108.944528 131.100287,108.463557 C132.628561,107.492592 133.646912,105.900509 133.882603,104.113703 C133.882603,104.061224 133.812164,104.008746 134,103.956268 L134,102.720117 C133.806294,102.667638 133.888473,102.620991 133.882603,102.562682 L133.841514,102.591837 Z M61,107.162059 C60.7671235,110.393434 59.2768585,113.390935 56.8673672,115.474385 C55.5481071,116.74008 53.9026775,117.587431 52.1280044,117.915026 C51.4721888,118.064908 50.7882486,118.015762 50.1589938,117.773539 C49.3725826,117.391695 48.9115069,116.534532 49.0142202,115.645348 C49.0361169,114.259615 49.4196709,112.905485 50.1246506,111.724995 C51.0159162,110.201036 52.181571,108.866414 53.5589715,107.792852 C55.6952323,106.044144 57.9590329,104.467414 60.3303074,103.076638 C60.3879161,103.047468 60.4471688,103.021876 60.5077473,103 C60.8817479,104.35173 61.0288673,105.759316 60.9427613,107.162059 L61,107.162059 Z M80,92.8159359 C79.8244684,93.8984872 79.5768598,94.9691935 79.2586878,96.0215097 C78.0918692,99.628445 76.7015019,103.165581 75.094984,106.614098 C74.7722535,107.244895 74.4112774,107.857088 74.0139037,108.447544 C73.9513534,108.541014 73.8766206,108.626474 73.79151,108.701861 C73.3343675,109.133608 72.9019353,109.10995 72.6733641,108.542173 C72.4183139,107.87383 72.2260463,107.185036 72.0988471,106.483982 C72.0325322,106.00756 71.9995116,105.527431 72.0000055,105.046797 C72.0605529,101.717993 73.0802853,98.4698787 74.9467216,95.6607348 C75.6235096,94.4398742 76.5905724,93.388415 77.7698857,92.5911909 C78.1548177,92.3598495 78.5703424,92.1788428 79.0054061,92.0529857 C79.6725871,91.8696411 80.0864864,92.1712726 79.9752896,92.8159359 L80,92.8159359 Z M92,108.978448 L97,104 C96.7181984,106.385077 94.7285998,108.374676 92,109 L92,108.978448 Z M107.453796,106.393317 C107.121588,106.593303 106.765651,106.737043 106.421579,106.924531 C106.077506,107.112018 106.012251,106.924531 106.000387,106.6433 C105.996604,106.448969 106.020601,106.255145 106.071574,106.068339 C106.668264,103.75193 107.890311,101.66776 109.589417,100.068745 C109.626346,100.041135 109.666153,100.018069 109.708063,100 C110.52741,102.426555 109.574306,105.122554 107.447863,106.393317 L107.453796,106.393317 Z" id="Shape" fill="#FFFFFF" fill-rule="nonzero"></path>
    </g>
</svg>