<?xml version="1.0" encoding="UTF-8"?>
<svg width="175px" height="175px" viewBox="0 0 175 175" version="1.1" xmlns="http://www.w3.org/2000/svg" xmlns:xlink="http://www.w3.org/1999/xlink">
    <!-- Generator: Sketch 52.6 (67491) - http://www.bohemiancoding.com/sketch -->
    <title>Untitled 4</title>
    <desc>Created with Sketch.</desc>
    <g id="Page-1" stroke="none" stroke-width="1" fill="none" fill-rule="evenodd">
        <g id="r" fill="#FF6348">
            <g id="typescript">
                <polygon id="Path" points="0 87.5 0 175 175 175 175 0 0 0"></polygon>
            </g>
        </g>
        <path d="M96.2976495,71.0666644 C93.8423259,69.1161401 86.9550398,72.3849213 85.0072873,77.2281724 C82.5602168,83.3814154 78.9288138,92.3653982 75.3675628,96.2995066 C71.6082353,100.436106 71.2368418,97.2417091 71.6082353,94.8572757 C72.4789467,89.2371209 77.9508109,76.223983 80.9467184,72.5543525 C79.8366645,70.9054982 72.5821116,71.1451813 67.5435398,78.9803383 C65.6618128,81.9391845 61.3660281,91.7951178 56.5956849,99.5641554 C55.5516566,101.246069 54.2393995,100.072449 55.2545418,96.1383404 C56.3934818,91.592627 59.7566562,79.1167097 64.0854538,69.2938362 C75.4418415,67.0416418 87.4956237,65.458907 96.7350685,65.4258473 C97.9771735,65.0911174 98.8148721,63.9753514 96.7350685,63.9092319 C88.774868,63.6406216 76.8159974,64.582824 65.6329266,65.9961277 C67.7828823,61.6859648 70.1020284,58.2601498 72.4500606,56.809654 C69.8956986,55.1938595 64.7250759,55.8343918 61.7704343,60.2106742 C60.389831,62.2975346 59.1504507,64.4747139 58.0606259,66.7275743 L57.907942,67.070569 C49.7083989,68.3475013 42.6890619,69.7938646 39.1278109,71.1410488 C35.4345089,72.55022 35.8389152,77.0256815 38.0879091,76.1826583 C42.759214,74.4346248 49.0687768,72.6163395 56.0922404,71.0046774 C51.6231387,81.1002938 48.1320398,93.0059306 47.2943412,97.8491817 C45.210411,109.62258 52.4979767,109.552328 56.0592277,104.911567 C59.92172,99.8327657 67.9809589,81.9681118 69.2271904,80.0878394 C69.5944573,79.4473071 70.1020284,79.7861693 69.8337997,80.3523173 C60.8336974,98.3492102 61.6012439,105.312417 68.8929362,103.762742 C72.1818319,103.05609 77.8600258,97.4111402 79.3414732,94.4770888 C79.6427146,93.7704369 80.2823367,93.8365564 80.1461591,94.142359 C74.4349525,108.982047 67.1845261,120.986863 62.3151448,124.755673 C57.8790558,128.148428 54.5860335,120.784372 70.2712187,110.221787 C72.5944914,108.647317 71.5133236,106.49017 68.8970628,107.229881 C60.8048112,108.506814 37.6298571,115.875002 27.4495488,122.937388 C26.673749,123.478741 25.9681014,123.91265 26.0011141,125.024283 C26.0341269,125.664816 27.1441808,125.425133 27.6847647,125.090403 C40.8527273,117.184994 51.6313919,114.093909 63.9946687,111.498719 C64.1597325,111.568971 64.3619356,111.602031 64.5269994,111.535912 C65.100596,111.39954 65.0675832,111.70121 64.6961897,111.936761 C64.2009984,112.234299 63.5820092,112.560763 62.9506403,112.854169 L62.8144627,112.912023 C54.4828686,116.172539 49.4442969,123.371297 51.2269856,127.040927 C52.7414458,130.202264 60.8997229,129.057571 64.7622152,126.974808 C74.2368759,121.829886 81.1200354,111.73427 85.824353,97.8119895 C89.9220612,85.4641787 95.0968106,71.4757786 96.3059027,71.0666644 L96.2976495,71.0666644 Z M41.3764683,110.030317 C44.8088435,105.949917 45.2094938,101.733915 42.5536367,93.9059572 C40.8725576,88.9585237 38.0803969,85.1452194 40.1290829,82.0674556 C42.3140726,78.7924518 46.9566595,81.9688356 43.0905907,86.3450953 L43.8629784,86.8833958 C48.5055652,87.4216963 50.7896849,81.0976928 47.3283968,79.2896607 C38.1795268,74.539467 30.1789123,83.6741387 33.7104174,94.2429086 C35.2262799,98.7260066 37.3451829,103.4762 35.6269301,107.256631 C34.1523719,110.498762 31.2941244,112.405414 29.3776117,112.47116 C25.3752392,112.672509 28.0352267,103.541947 32.6365094,101.26547 C33.0371597,101.06823 33.6112875,100.801134 33.070203,100.131341 C27.3908819,99.4944203 24.0617672,102.103739 22.1452544,105.748568 C16.5650633,116.350211 32.7356394,120.266244 41.3764683,110.034426 L41.3764683,110.030317 Z M151.04988,99.6588767 C135.688443,97.7254651 102.560205,100.304668 87.9306573,104.048672 C83.5763314,105.142159 84.7851811,107.36479 86.993182,106.948789 C87.0260759,106.948789 87.9635512,106.72296 87.996445,106.72296 C100.015042,104.468634 129.163122,102.495603 146.16514,105.629473 C148.208672,105.982083 154.335155,100.082801 151.04988,99.6588767 Z M100.643937,97.0928493 C104.977613,94.9362406 111.417765,81.5909304 115.65153,74.2808132 C115.955428,73.7385565 116.500781,74.1773291 116.196882,74.5457325 C105.489662,92.8748372 110.031488,94.998331 114.265253,94.7292723 C119.926925,94.3939838 125.143156,86.3056662 126.292142,84.484346 C126.770887,83.7765147 127.041481,84.3518863 126.770887,84.8610281 C126.500292,85.701319 125.517826,87.1832114 124.601967,89.2032211 C123.315602,92.0676612 124.668575,93.1770108 125.78842,93.6861526 C127.549367,94.5305829 132.361788,93.9883262 133.1028,91.0576563 C128.294542,90.9583116 139.813547,68.3780799 141,66.9996716 C137.782006,65.1452364 132.803065,67.1693855 130.525907,71.6150627 C125.684345,81.1521578 121.6171,88.8348177 119.073511,88.9672774 C114.127874,89.2363361 124.768487,67.7075029 126.496129,67.0327865 C125.447055,65.5136398 118.703004,66.1552413 114.939658,71.9503512 C113.586685,74.0407301 105.318979,88.5947346 103.283275,90.9914265 C99.6906111,95.2342748 99.4200165,91.599913 100.435787,87.348786 C100.77299,85.9041479 101.351646,84.0497127 102.100985,81.9965881 C104.469728,76.6692263 107.013317,74.9886445 108.57444,73.266669 C119.04437,61.7137035 125.043244,52.342183 122.666175,48.6747063 C120.568026,45.4087479 113.553381,46.853386 109.044858,53.5922709 C100.739686,65.9606912 93.0881027,82.9031088 92.1056361,90.6602773 C91.1564735,98.4091671 96.8139823,98.97626 100.643937,97.0969887 L100.643937,97.0928493 Z M141.011452,79.6987254 C142.321314,82.8875262 144.304702,86.0477462 143.127066,88.8404987 C142.1519,91.2290371 140.875094,92.2334481 139.46193,92.4620945 C137.478543,92.7928152 138.011578,86.647943 141.412262,84.8187717 C141.713902,84.6554529 142.1519,83.8551905 141.746958,83.3938147 C137.445486,83.1610853 135.019969,85.1862392 133.710106,87.8810004 C129.908613,95.7570525 142.321314,97.9128615 148.407835,90.1715474 C150.825089,87.080738 150.932522,84.0266753 148.606174,78.473834 C147.131029,74.9502295 144.874926,72.3289618 146.28809,69.997585 C147.804555,67.5437191 151.432501,69.6668643 148.713607,72.9577394 L149.32102,73.2884601 C152.853929,73.4844427 154.296017,68.8339382 151.606048,67.6702913 C144.511305,64.6815561 137.883484,72.2228045 141.011452,79.7028084 L141.011452,79.6987254 Z M105.066045,74.5889833 C105.423604,73.7559805 105.656619,73.5273131 106.275316,72.1267251 C109.870987,64.0866153 114.386667,55.6095873 117.492202,51.6569076 C119.420606,49.5948175 122.132425,52.3878267 117.231064,60.0318519 C114.412529,64.4711809 111.154799,68.605973 107.508691,72.3717259 L107.516726,72.3635593 L107.516726,72.396226 C106.600734,73.4252294 105.781162,74.2908989 105.423604,74.7931506 C105.162466,75.1239017 104.86517,75.0585681 105.066045,74.5930666 L105.066045,74.5889833 Z" id="Shape" fill="#FFFFFF" fill-rule="nonzero"></path>
    </g>
</svg>