<?xml version="1.0" encoding="UTF-8"?>
<svg width="175px" height="175px" viewBox="0 0 175 175" version="1.1" xmlns="http://www.w3.org/2000/svg" xmlns:xlink="http://www.w3.org/1999/xlink">
    <!-- Generator: Sketch 52.6 (67491) - http://www.bohemiancoding.com/sketch -->
    <title>Untitled</title>
    <desc>Created with Sketch.</desc>
    <g id="Page-1" stroke="none" stroke-width="1" fill="none" fill-rule="evenodd">
        <g id="typescript">
            <polygon id="Path" fill="#00A23C" points="0 87.5 0 175 175 175 175 0 0 0"></polygon>
            <path d="M141.025,80.525 C145.215711,81.500035 149.023769,83.6943984 151.96875,86.83125 C153.590547,88.5284468 154.998899,90.417443 156.1625,92.45625 C156.21875,92.68125 148.60625,97.7875 143.99375,100.65 C143.825,100.7625 143.1625,100.025 142.4125,98.925 C140.703525,95.9722024 137.596944,94.1049486 134.1875,93.98125 C128.88125,93.61875 125.4375,96.4 125.49375,101.0375 C125.448542,102.176394 125.70741,103.306785 126.24375,104.3125 C127.4125,106.73125 129.575,108.175 136.38125,111.11875 C148.88125,116.50625 154.26875,120.0625 157.63125,125.11875 C161.419957,131.582287 162.161058,139.389012 159.65625,146.45 C156.199828,154.250746 148.780152,159.559404 140.28125,160.3125 C135.849067,160.821126 131.370749,160.774936 126.95,160.175 C120.17681,159.062974 113.937157,155.812835 109.14375,150.9 C107.334028,148.860732 105.801992,146.591048 104.5875,144.15 C105.099283,143.769465 105.638221,143.426883 106.2,143.125 C106.975,142.68125 109.95,140.9875 112.7,139.375 L117.7,136.45625 L118.75,138 C120.529741,140.544859 122.796351,142.711628 125.41875,144.375 C130.801155,147.326132 137.38715,146.99248 142.44375,143.5125 C145.067058,140.940693 145.477348,136.861464 143.41875,133.81875 C142.05625,131.875 139.28125,130.2375 131.39375,126.81875 C125.208062,124.724813 119.575945,121.259224 114.91875,116.68125 C112.697372,114.150239 111.056901,111.163686 110.1125,107.93125 C109.413661,104.248681 109.310263,100.477831 109.80625,96.7625 C111.704947,88.0060205 118.873399,81.3693974 127.75,80.15 C132.168723,79.607638 136.643941,79.7340566 141.025,80.525 Z M99.94375,87.83125 L100,95 L77.225,95 L77.225,159.725 L61.1125,159.725 L61.1125,95 L38.33125,95 L38.33125,87.975 C38.269316,85.5649355 38.3339884,83.1532813 38.525,80.75 C38.60625,80.6375 52.46875,80.58125 69.275,80.6125 L99.85625,80.69375 L99.94375,87.83125 Z" id="Shape" fill="#FFFFFF" fill-rule="nonzero"></path>
        </g>
    </g>
</svg>