<?xml version="1.0" encoding="utf-8"?>
<!-- Generator: Adobe Illustrator 16.0.0, SVG Export Plug-In . SVG Version: 6.00 Build 0)  -->
<!DOCTYPE svg PUBLIC "-//W3C//DTD SVG 1.1//EN" "http://www.w3.org/Graphics/SVG/1.1/DTD/svg11.dtd">
<svg version="1.1" id="图层_3" xmlns="http://www.w3.org/2000/svg" xmlns:xlink="http://www.w3.org/1999/xlink" x="0px" y="0px"
	 width="192px" height="192px" viewBox="0 0 192 192" enable-background="new 0 0 192 192" xml:space="preserve">
<path fill="#4285F4" d="M125.174,20H28.407C23.762,20,20,23.763,20,28.406v96.769c0,4.646,3.762,8.407,8.406,8.407h96.768
	c4.646,0,8.406-3.764,8.406-8.407V28.406C133.582,23.763,129.82,20,125.174,20z"/>
<g>
	<path fill="#FFFFFF" d="M77.306,47.209c-16.568,0-29.987,13.448-29.987,30.016s13.419,30.017,29.987,30.017
		c16.598,0,30.046-13.449,30.046-30.017S93.903,47.209,77.306,47.209z M77.335,101.238c-13.267,0-24.013-10.746-24.013-24.013
		c0-13.267,10.746-24.013,24.013-24.013s24.014,10.746,24.014,24.013C101.349,90.493,90.602,101.238,77.335,101.238z"/>
	<path fill="#FFFFFF" d="M78.836,62.217h-4.502v18.009l15.759,9.457l2.25-3.693l-13.506-8.014V62.217z"/>
</g>
<circle fill="#34A853" cx="133.875" cy="133.875" r="49.625"/>
<path fill="#FFFFFF" d="M126.527,139.258h-17.176v4.9h17.176v7.35l9.774-9.8l-9.774-9.8V139.258z M141.178,136.809v-7.351h17.176
	v-4.899h-17.176v-7.351l-9.775,9.8L141.178,136.809z"/>
</svg>
